<?xml version="1.0" standalone="no"?>
<!DOCTYPE svg PUBLIC "-//W3C//DTD SVG 20010904//EN"
 "http://www.w3.org/TR/2001/REC-SVG-20010904/DTD/svg10.dtd">
<svg version="1.0" xmlns="http://www.w3.org/2000/svg"
 width="258.000000pt" height="258.000000pt" viewBox="0 0 258.000000 258.000000"
 preserveAspectRatio="xMidYMid meet">
<metadata>
Created by potrace 1.14, written by Peter Selinger 2001-2017
</metadata>
<g transform="translate(0.000000,258.000000) scale(0.100000,-0.100000)"
fill="#000000" stroke="none">
<path d="M241 2120 c-20 -5 -30 -21 -57 -100 -18 -52 -62 -180 -98 -283 l-65
-188 41 3 41 3 23 68 c12 38 25 72 29 75 3 4 55 7 116 7 l109 0 26 -77 26 -78
39 0 c21 0 39 2 39 4 0 2 -20 62 -46 133 -25 70 -67 192 -94 270 -27 78 -52
148 -57 155 -9 14 -35 17 -72 8z m78 -233 l40 -117 -90 0 c-49 0 -89 3 -89 7
0 5 19 64 41 132 28 84 44 119 50 109 4 -8 26 -67 48 -131z"/>
<path d="M724 1956 c-17 -8 -39 -24 -48 -37 -13 -19 -16 -20 -17 -6 -1 9 -2
23 -3 30 -1 13 -66 23 -67 10 -1 -11 -1 -374 0 -390 1 -8 15 -13 34 -13 l34 0
1 124 c1 149 14 189 67 212 20 8 41 14 48 13 27 -3 33 3 33 36 0 31 -3 35 -26
35 -14 -1 -39 -7 -56 -14z"/>
<path d="M1011 1954 c-19 -8 -40 -22 -47 -32 -11 -15 -13 -14 -19 11 -6 22
-13 27 -36 27 -21 0 -29 -5 -30 -17 -1 -24 -1 -364 0 -380 1 -8 15 -13 35 -13
l34 0 1 137 c2 150 10 180 56 202 47 23 86 16 118 -19 27 -30 27 -31 27 -175
l0 -145 35 0 c21 0 35 5 36 13 0 6 1 74 1 149 0 151 -12 193 -63 231 -33 24
-104 29 -148 11z"/>
<path d="M1459 1961 c-65 -21 -102 -53 -126 -109 -36 -85 -23 -189 30 -244 46
-48 75 -61 137 -63 87 -4 157 34 179 96 10 28 9 29 -24 29 -24 0 -38 -6 -45
-20 -23 -43 -99 -61 -154 -35 -36 17 -79 85 -70 110 4 9 41 12 142 13 75 0
143 1 151 1 18 1 10 84 -14 134 -32 68 -133 111 -206 88z m108 -69 c24 -13 53
-61 53 -87 0 -13 -18 -15 -120 -15 l-120 0 15 37 c9 20 17 37 18 38 1 1 14 11
30 22 30 23 86 25 124 5z"/>
<path d="M245 1137 c-105 -34 -183 -142 -189 -262 -9 -162 90 -287 245 -310
35 -5 50 -13 59 -31 19 -34 90 -66 142 -63 60 4 68 8 68 35 0 21 -5 24 -42 25
-56 1 -76 5 -93 19 -22 18 -19 25 21 39 48 17 111 82 137 140 16 35 21 66 21
131 1 76 -3 91 -29 139 -38 68 -96 118 -162 137 -56 16 -130 17 -178 1z m172
-73 c141 -64 169 -272 52 -380 -143 -132 -358 -5 -336 199 9 82 50 144 119
180 40 20 122 21 165 1z"/>
<path d="M1186 1119 c-11 -17 -12 -27 -4 -45 6 -13 15 -25 20 -25 4 -1 14 -2
21 -3 17 -3 47 24 47 43 -1 45 -59 66 -84 30z"/>
<path d="M1488 967 c-18 -11 -36 -25 -40 -31 -8 -11 -8 -10 -12 27 -1 17 -66
22 -67 5 -1 -18 -1 -359 0 -380 1 -13 10 -18 34 -18 l33 0 2 135 c1 151 10
182 57 204 42 20 85 16 112 -12 31 -30 31 -35 32 -194 l1 -133 35 0 c40 0 38
-12 36 194 -1 121 -15 164 -62 199 -38 28 -119 30 -161 4z"/>
<path d="M2305 982 c-55 -12 -110 -70 -129 -137 -30 -101 4 -209 80 -255 47
-30 137 -35 190 -10 43 19 64 40 82 83 11 26 11 27 -23 27 -25 0 -37 -6 -45
-21 -13 -23 -67 -49 -101 -49 -43 0 -88 31 -110 76 -12 25 -18 48 -14 52 4 4
68 8 143 9 75 1 143 2 150 2 29 2 1 137 -36 171 -50 47 -121 66 -187 52z m105
-67 c30 -15 60 -61 60 -90 0 -13 -18 -15 -119 -15 l-120 0 10 28 c28 77 103
111 169 77z"/>
<path d="M729 918 c-4 -185 1 -251 23 -289 43 -76 166 -89 231 -24 13 13 16
11 21 -10 5 -20 13 -25 36 -25 24 0 30 4 31 23 1 26 0 332 0 365 -1 18 -7 22
-36 22 l-35 0 0 -134 c0 -146 -7 -177 -42 -200 -53 -35 -113 -24 -142 25 -15
25 -18 55 -20 167 l-1 137 -32 3 -33 3 -1 -63z"/>
<path d="M1189 948 c0 -39 0 -323 0 -355 1 -19 7 -23 35 -23 l33 0 0 205 0
205 -34 0 c-30 0 -33 -2 -34 -32z"/>
<path d="M1816 958 c1 -13 3 -26 3 -30 1 -3 42 -6 92 -6 50 0 92 -2 93 -4 2
-1 -41 -70 -95 -152 -55 -82 -102 -159 -105 -172 l-6 -24 156 0 156 0 0 29 0
29 -101 0 c-55 0 -102 2 -103 4 -2 2 43 73 100 158 57 85 103 163 104 173 0
15 -14 17 -148 17 -148 0 -149 0 -146 -22z"/>
</g>
</svg>
